<svg
  width="320"
  height="240"
  viewBox="0 0 320 240"
  fill="none"
  xmlns="http://www.w3.org/2000/svg"
  role="img"
  aria-labelledby="tasks-empty-state-title tasks-empty-state-desc"
>
  <title id="tasks-empty-state-title">No tasks illustration</title>
  <desc id="tasks-empty-state-desc">A clipboard with an empty checklist and a floating completed task chip.</desc>

  <defs>
    <linearGradient id="tasks-bg" x1="48" y1="36" x2="272" y2="204" gradientUnits="userSpaceOnUse">
      <stop stop-color="var(--ui-background-color, #ffffff)" />
      <stop offset="1" stop-color="var(--ui-surface-color, #f4f6f8)" />
    </linearGradient>

    <filter id="tasks-shadow" x="56" y="22" width="208" height="188" filterUnits="userSpaceOnUse" color-interpolation-filters="sRGB">
      <feFlood flood-opacity="0" result="BackgroundImageFix" />
      <feColorMatrix in="SourceAlpha" type="matrix" values="0 0 0 0 0 0 0 0 0 0 0 0 0 0 0 0 0 0 127 0" result="hardAlpha" />
      <feOffset dy="10" />
      <feGaussianBlur stdDeviation="10" />
      <feColorMatrix type="matrix" values="0 0 0 0 0.07 0 0 0 0 0.1 0 0 0 0 0.16 0 0 0 0.12 0" />
      <feBlend mode="normal" in2="BackgroundImageFix" result="effect1_dropShadow_1_1" />
      <feBlend mode="normal" in="SourceGraphic" in2="effect1_dropShadow_1_1" result="shape" />
    </filter>
  </defs>

  <circle cx="76" cy="68" r="20" fill="var(--ui-accent-color, #dbe7ff)" opacity="0.7" />
  <circle cx="252" cy="58" r="14" fill="var(--ui-warning-color, #ffe7b8)" opacity="0.9" />
  <circle cx="250" cy="184" r="22" fill="var(--ui-success-color, #d8f3dc)" opacity="0.65" />

  <path
    d="M83 183C96 165 118 154 143 154H182C205 154 227 144 241 126"
    stroke="var(--ui-border-color, #d7dce2)"
    stroke-width="3"
    stroke-linecap="round"
    stroke-dasharray="7 9"
    opacity="0.9"
  />

  <g filter="url(#tasks-shadow)">
    <rect
      x="84"
      y="42"
      width="152"
      height="148"
      rx="20"
      fill="url(#tasks-bg)"
      stroke="var(--ui-border-color, #d7dce2)"
      stroke-width="2"
    />
    <rect
      x="128"
      y="30"
      width="64"
      height="28"
      rx="14"
      fill="var(--ui-surface-color, #eef2f6)"
      stroke="var(--ui-border-color, #d7dce2)"
      stroke-width="2"
    />
    <rect
      x="142"
      y="39"
      width="36"
      height="10"
      rx="5"
      fill="var(--ui-text-secondary-color, #9aa4b2)"
      opacity="0.45"
    />

    <rect x="108" y="78" width="18" height="18" rx="6" fill="var(--ui-accent-color, #dbe7ff)" />
    <rect x="138" y="81" width="70" height="6" rx="3" fill="var(--ui-text-color, #1f2937)" opacity="0.2" />
    <rect x="138" y="91" width="52" height="6" rx="3" fill="var(--ui-text-color, #1f2937)" opacity="0.1" />

    <rect x="108" y="112" width="18" height="18" rx="6" fill="var(--ui-accent-color, #dbe7ff)" />
    <rect x="138" y="115" width="56" height="6" rx="3" fill="var(--ui-text-color, #1f2937)" opacity="0.14" />
    <rect x="138" y="125" width="76" height="6" rx="3" fill="var(--ui-text-color, #1f2937)" opacity="0.08" />

    <rect x="108" y="146" width="18" height="18" rx="6" fill="var(--ui-accent-color, #dbe7ff)" />
    <rect x="138" y="149" width="64" height="6" rx="3" fill="var(--ui-text-color, #1f2937)" opacity="0.1" />
    <rect x="138" y="159" width="44" height="6" rx="3" fill="var(--ui-text-color, #1f2937)" opacity="0.06" />
  </g>

  <g transform="rotate(-8 246 138)">
    <rect
      x="212"
      y="118"
      width="72"
      height="40"
      rx="14"
      fill="var(--ui-background-color, #ffffff)"
      stroke="var(--ui-border-color, #d7dce2)"
      stroke-width="2"
    />
    <circle cx="230" cy="138" r="10" fill="var(--ui-success-color, #d8f3dc)" />
    <path
      d="M226 138L229 141L235 134"
      stroke="var(--ui-success-foreground-color, #177245)"
      stroke-width="2.5"
      stroke-linecap="round"
      stroke-linejoin="round"
    />
    <rect x="246" y="132" width="22" height="6" rx="3" fill="var(--ui-text-color, #1f2937)" opacity="0.22" />
  </g>

  <path
    d="M72 178C72 178 76 174 82 174C88 174 92 178 92 178"
    stroke="var(--ui-text-secondary-color, #9aa4b2)"
    stroke-width="3"
    stroke-linecap="round"
    opacity="0.8"
  />
</svg>